<svg width="200" height="200" viewBox="0 0 200 200" fill="none" xmlns="http://www.w3.org/2000/svg">
<path d="M193.338 101.699L193.139 104.927C193.051 106.351 192.771 107.409 192.301 108.1C191.83 108.791 191.083 109.105 190.059 109.042C189.617 109.014 189.225 108.904 188.882 108.711C188.544 108.523 188.27 108.26 188.061 107.924C187.853 107.588 187.719 107.18 187.659 106.702L187.582 106.697C187.473 107.191 187.302 107.624 187.071 107.996C186.839 108.368 186.529 108.651 186.142 108.846C185.754 109.042 185.271 109.121 184.694 109.086C183.993 109.042 183.41 108.842 182.947 108.484C182.483 108.132 182.145 107.652 181.932 107.044C181.724 106.436 181.646 105.727 181.696 104.916L181.938 100.994L193.338 101.699ZM188.367 102.722L188.232 104.905C188.171 105.898 188.292 106.595 188.596 106.994C188.9 107.399 189.366 107.621 189.995 107.66C190.645 107.7 191.127 107.501 191.441 107.061C191.755 106.626 191.943 105.912 192.004 104.92L192.126 102.955L188.367 102.722ZM187.252 102.653L182.987 102.389L182.84 104.76C182.778 105.773 182.931 106.503 183.3 106.949C183.674 107.394 184.199 107.638 184.875 107.68C185.307 107.707 185.682 107.633 186 107.46C186.318 107.292 186.571 107 186.759 106.583C186.951 106.172 187.069 105.614 187.113 104.907L187.252 102.653Z" fill="#105720"/>
<path d="M189.326 114.332L184.042 113.303C183.94 113.283 183.808 113.255 183.645 113.218C183.488 113.182 183.318 113.141 183.136 113.095C182.959 113.049 182.787 113.005 182.62 112.962C182.458 112.925 182.324 112.891 182.218 112.86L188.45 118.834L188.145 120.398L179.741 118.761L179.972 117.572L185.125 118.576C185.289 118.608 185.498 118.652 185.753 118.706C186.007 118.761 186.256 118.818 186.5 118.876C186.748 118.935 186.941 118.98 187.078 119.012L180.851 113.055L181.157 111.483L189.561 113.121L189.326 114.332Z" fill="#105720"/>
<path d="M185.221 130.36L178.125 128.055L177.747 129.222L173.883 127.967L174.271 126.771L177.087 127.685L178.958 121.919L176.141 121.004L176.525 119.822L180.389 121.077L180.181 121.716C180.674 122.391 181.255 123.007 181.923 123.563C182.591 124.12 183.321 124.614 184.111 125.046C184.907 125.48 185.734 125.841 186.593 126.131L185.221 130.36ZM184.629 128.845L185.255 126.913C184.547 126.633 183.845 126.288 183.152 125.876C182.457 125.47 181.815 125.02 181.224 124.527C180.639 124.036 180.152 123.528 179.764 123.002L178.513 126.859L184.629 128.845Z" fill="#105720"/>
<path d="M182.451 137.533C182.15 138.197 181.744 138.699 181.235 139.04C180.726 139.38 180.149 139.556 179.504 139.566C178.863 139.578 178.19 139.424 177.483 139.103L176.751 138.77L179.194 133.384C178.273 132.983 177.472 132.894 176.793 133.117C176.114 133.341 175.593 133.853 175.229 134.655C175.005 135.148 174.852 135.605 174.77 136.025C174.688 136.445 174.642 136.899 174.633 137.387L173.594 136.915C173.597 136.442 173.647 135.992 173.743 135.567C173.837 135.146 174.003 134.672 174.242 134.146C174.582 133.397 175.031 132.811 175.588 132.389C176.148 131.974 176.794 131.747 177.527 131.708C178.26 131.669 179.055 131.845 179.913 132.235C180.753 132.616 181.415 133.086 181.899 133.644C182.387 134.208 182.68 134.822 182.78 135.485C182.877 136.153 182.767 136.836 182.451 137.533ZM181.49 137.079C181.776 136.448 181.798 135.852 181.556 135.29C181.313 134.727 180.838 134.243 180.131 133.835L178.258 137.962C178.725 138.168 179.166 138.28 179.582 138.297C180 138.321 180.371 138.235 180.694 138.039C181.022 137.845 181.288 137.525 181.49 137.079Z" fill="#105720"/>
<path d="M172.041 147.403C171.438 147.041 170.947 146.639 170.568 146.199C170.189 145.758 169.924 145.292 169.775 144.802C169.627 144.311 169.591 143.804 169.669 143.279C169.749 142.762 169.947 142.24 170.263 141.713C170.558 141.222 170.913 140.822 171.33 140.513C171.748 140.211 172.209 140.009 172.715 139.905C173.218 139.807 173.755 139.817 174.328 139.936C174.897 140.06 175.483 140.303 176.086 140.665C176.89 141.148 177.491 141.695 177.89 142.305C178.293 142.918 178.491 143.566 178.482 144.247C178.476 144.936 178.262 145.631 177.841 146.332C177.439 147.002 176.938 147.497 176.339 147.817C175.737 148.142 175.07 148.273 174.336 148.209C173.605 148.152 172.84 147.884 172.041 147.403ZM175.394 141.817C174.805 141.463 174.247 141.234 173.72 141.13C173.194 141.026 172.714 141.066 172.282 141.249C171.849 141.433 171.479 141.782 171.171 142.295C170.865 142.804 170.733 143.293 170.774 143.761C170.812 144.234 171.001 144.678 171.34 145.095C171.679 145.512 172.143 145.897 172.732 146.251C173.317 146.603 173.869 146.828 174.386 146.926C174.909 147.028 175.384 146.985 175.812 146.799C176.24 146.612 176.609 146.26 176.92 145.742C177.378 144.978 177.463 144.266 177.173 143.606C176.88 142.95 176.287 142.354 175.394 141.817Z" fill="#105720"/>
<path d="M163.282 158.591C162.747 158.135 162.328 157.659 162.026 157.162C161.724 156.665 161.54 156.162 161.473 155.654C161.407 155.146 161.455 154.639 161.617 154.135C161.781 153.637 162.061 153.155 162.46 152.687C162.831 152.25 163.247 151.914 163.709 151.677C164.17 151.448 164.659 151.324 165.175 151.305C165.687 151.29 166.215 151.388 166.76 151.599C167.302 151.814 167.841 152.15 168.376 152.606C169.089 153.214 169.593 153.852 169.887 154.52C170.184 155.191 170.273 155.862 170.153 156.533C170.034 157.211 169.709 157.862 169.179 158.485C168.673 159.08 168.098 159.486 167.454 159.704C166.807 159.926 166.127 159.945 165.415 159.762C164.702 159.586 163.992 159.196 163.282 158.591ZM167.505 153.63C166.982 153.184 166.469 152.866 165.966 152.677C165.463 152.489 164.984 152.449 164.527 152.56C164.071 152.67 163.648 152.954 163.26 153.41C162.875 153.862 162.665 154.322 162.628 154.791C162.589 155.263 162.702 155.733 162.968 156.2C163.235 156.666 163.63 157.122 164.153 157.568C164.672 158.011 165.179 158.323 165.674 158.505C166.173 158.691 166.648 158.726 167.101 158.613C167.553 158.499 167.976 158.212 168.367 157.752C168.944 157.073 169.144 156.385 168.966 155.686C168.785 154.991 168.298 154.305 167.505 153.63Z" fill="#105720"/>
<path d="M157.431 169.884L156.346 170.815L156.46 165.271L150.547 164.508L151.703 163.516L157.483 164.279L154.655 160.981L155.645 160.132L161.218 166.632L160.228 167.482L157.523 164.327L157.431 169.884Z" fill="#105720"/>
<path d="M145.314 173.407C144.919 172.825 144.643 172.254 144.484 171.695C144.325 171.135 144.281 170.602 144.352 170.094C144.423 169.586 144.604 169.111 144.895 168.668C145.185 168.232 145.584 167.841 146.093 167.496C146.567 167.174 147.057 166.961 147.565 166.856C148.071 166.758 148.575 166.768 149.077 166.887C149.575 167.008 150.059 167.244 150.528 167.592C150.993 167.944 151.422 168.411 151.817 168.993C152.343 169.769 152.659 170.518 152.764 171.24C152.872 171.966 152.779 172.636 152.485 173.251C152.19 173.873 151.703 174.414 151.027 174.873C150.38 175.312 149.718 175.551 149.04 175.59C148.357 175.631 147.696 175.469 147.058 175.103C146.418 174.744 145.837 174.178 145.314 173.407ZM150.705 169.748C150.319 169.179 149.909 168.736 149.475 168.42C149.041 168.105 148.589 167.939 148.119 167.924C147.65 167.909 147.167 168.07 146.672 168.406C146.18 168.74 145.855 169.127 145.695 169.569C145.531 170.014 145.515 170.497 145.648 171.018C145.781 171.538 146.04 172.083 146.426 172.652C146.808 173.217 147.214 173.653 147.643 173.96C148.074 174.272 148.523 174.433 148.989 174.443C149.456 174.454 149.939 174.29 150.439 173.95C151.176 173.45 151.552 172.84 151.566 172.118C151.577 171.4 151.289 170.61 150.705 169.748Z" fill="#105720"/>
<path d="M136.845 182.743L132.991 175.096L134.038 174.569L136.548 179.55C136.651 179.754 136.751 179.964 136.847 180.178C136.941 180.399 137.032 180.621 137.122 180.844L137.164 180.823L136.555 173.298L137.539 172.802L143.162 177.796L143.204 177.775C143.082 177.568 142.965 177.359 142.852 177.147C142.737 176.943 142.621 176.724 142.504 176.491L140.015 171.552L141.068 171.021L144.922 178.667L143.366 179.452L137.747 174.447L138.393 181.961L136.845 182.743Z" fill="#105720"/>
<path d="M126.639 186.539L123.814 178.456L125.046 178.025L127.502 185.054L131.808 183.547L129.352 176.518L130.584 176.087L133.408 184.17L126.639 186.539Z" fill="#105720"/>
<path d="M120.232 188.333C119.238 188.563 118.448 188.51 117.863 188.175C117.278 187.839 116.872 187.182 116.647 186.202L115.34 180.53L116.261 180.318L116.789 181.495L116.85 181.481C117.013 181.123 117.197 180.81 117.403 180.543C117.61 180.282 117.869 180.059 118.179 179.875C118.486 179.698 118.88 179.553 119.362 179.442C119.87 179.325 120.342 179.31 120.779 179.396C121.21 179.483 121.582 179.681 121.893 179.988C122.2 180.297 122.416 180.728 122.544 181.282C122.736 182.114 122.553 182.83 121.996 183.428C121.44 184.027 120.491 184.503 119.15 184.855L117.726 185.248L117.843 185.758C118.009 186.478 118.28 186.948 118.657 187.166C119.033 187.383 119.503 187.427 120.066 187.297C120.502 187.197 120.904 187.037 121.271 186.819C121.637 186.601 121.978 186.364 122.294 186.11L122.903 186.98C122.572 187.259 122.178 187.524 121.723 187.773C121.267 188.022 120.77 188.209 120.232 188.333ZM117.536 184.353L118.795 184.007C119.826 183.726 120.52 183.387 120.877 182.989C121.234 182.591 121.35 182.118 121.223 181.57C121.114 181.093 120.888 180.774 120.546 180.612C120.204 180.45 119.794 180.425 119.317 180.535C118.576 180.706 118.017 181.051 117.64 181.571C117.263 182.091 117.169 182.762 117.358 183.585L117.536 184.353Z" fill="#105720"/>
<path d="M112.625 189.632L112.238 186.059L107.492 186.574L107.879 190.147L106.59 190.286L105.668 181.774L106.957 181.634L107.373 185.479L112.119 184.964L111.703 181.119L113 180.979L113.922 189.491L112.625 189.632Z" fill="#105720"/>
<path d="M100.68 190.505L100.805 185.123C100.807 185.019 100.813 184.884 100.822 184.717C100.831 184.556 100.843 184.382 100.857 184.195C100.872 184.013 100.887 183.836 100.901 183.664C100.91 183.498 100.921 183.36 100.934 183.251L96.0953 190.398L94.502 190.362L94.7002 181.801L95.9108 181.829L95.7893 187.078C95.7854 187.245 95.7779 187.458 95.7666 187.718C95.7554 187.978 95.7417 188.233 95.7255 188.483C95.7092 188.738 95.6968 188.936 95.6883 189.076L100.511 181.936L102.112 181.973L101.914 190.533L100.68 190.505Z" fill="#105720"/>
<path d="M88.9934 189.852L89.8186 184.533C89.8346 184.43 89.8579 184.296 89.8886 184.132C89.9185 183.974 89.953 183.802 89.992 183.619C90.0303 183.44 90.0677 183.267 90.1044 183.099C90.1351 182.935 90.1639 182.8 90.191 182.693L84.4618 189.148L82.8869 188.903L84.1997 180.442L85.3963 180.628L84.5914 185.816C84.5658 185.98 84.5305 186.191 84.4854 186.448C84.4403 186.704 84.3935 186.955 84.3449 187.201C84.2955 187.451 84.2574 187.646 84.2307 187.784L89.9433 181.334L91.5259 181.58L90.2131 190.041L88.9934 189.852Z" fill="#105720"/>
<path d="M76.6417 183.113L73.1295 185.332L72.4092 184.539L75.3926 182.608L74.1108 179.293L75.1613 179.067L76.7068 182.912L76.6417 183.113ZM73.6843 182.152L70.135 184.359L69.4296 183.572L72.4055 181.638L71.1312 178.325L72.1669 178.095L73.7494 181.952L73.6843 182.152Z" fill="#105720"/>
<path d="M63.6305 184.887C64.1095 185.104 64.5776 185.251 65.0349 185.328C65.4874 185.402 65.9117 185.437 66.3078 185.434L66.344 186.678C65.8527 186.689 65.3297 186.631 64.775 186.505C64.2203 186.379 63.6726 186.193 63.1321 185.947C62.3022 185.57 61.6396 185.115 61.1441 184.581C60.6418 184.049 60.2945 183.46 60.1024 182.812C59.9103 182.164 59.8577 181.479 59.9448 180.758C60.0319 180.037 60.2466 179.299 60.5888 178.545C61.0989 177.421 61.7261 176.53 62.4704 175.873C63.2148 175.216 64.0614 174.831 65.0104 174.719C65.9545 174.604 66.9838 174.8 68.0981 175.306C68.7003 175.58 69.1963 175.848 69.586 176.111C69.9732 176.367 70.3336 176.657 70.6673 176.98L70.1895 178.033C69.836 177.741 69.47 177.457 69.0914 177.182C68.706 176.91 68.2762 176.666 67.802 176.45C67.1666 176.162 66.5696 175.996 66.0111 175.954C65.4478 175.91 64.9251 175.984 64.4429 176.177C63.9608 176.37 63.5224 176.674 63.1279 177.09C62.7286 177.503 62.3777 178.025 62.075 178.654L67.2175 180.99L66.7332 182.058L61.605 179.727C61.398 180.297 61.2891 180.839 61.2781 181.355C61.2651 181.875 61.3461 182.359 61.5213 182.804C61.6966 183.25 61.962 183.648 62.3178 183.999C62.6666 184.352 63.1042 184.648 63.6305 184.887Z" fill="#105720"/>
<path d="M53.3241 167.452L54.6973 168.292L56.1568 175.977L59.1769 171.029L60.3102 171.722L54.3595 181.471L53.2263 180.779L56.108 176.057L48.86 178.11L47.5601 177.316L54.7629 175.217L53.3241 167.452Z" fill="#105720"/>
<path d="M40.9372 164.878C41.4929 164.195 42.0861 163.644 42.7168 163.224C43.3441 162.808 43.9938 162.538 44.6658 162.414C45.3304 162.291 46.0038 162.326 46.686 162.519C47.3682 162.712 48.0423 163.08 48.7084 163.623C49.3947 164.183 49.9055 164.78 50.2406 165.416C50.5717 166.049 50.7424 166.706 50.7527 167.386C50.7589 168.063 50.6183 168.751 50.3308 169.451C50.0393 170.147 49.6156 170.837 49.0599 171.519C48.3234 172.424 47.5279 173.096 46.6734 173.535C45.819 173.974 44.9345 174.137 44.0198 174.023C43.1011 173.906 42.1836 173.474 41.2672 172.727C40.3912 172.013 39.8073 171.224 39.5156 170.361C39.2199 169.496 39.1965 168.596 39.4454 167.663C39.687 166.732 40.1842 165.803 40.9372 164.878ZM47.9859 170.624C48.5975 169.873 49.0199 169.135 49.2531 168.411C49.4864 167.688 49.5046 166.997 49.3079 166.339C49.1072 165.678 48.6657 165.07 47.9834 164.514C47.2971 163.954 46.6143 163.646 45.935 163.59C45.2516 163.53 44.5814 163.689 43.9243 164.067C43.2671 164.446 42.6328 165.01 42.0212 165.762C41.0906 166.905 40.6041 167.993 40.5617 169.027C40.512 170.062 40.9937 170.992 42.007 171.818C42.6933 172.377 43.3785 172.691 44.0626 172.758C44.7467 172.825 45.4198 172.675 46.0817 172.307C46.7362 171.94 47.371 171.379 47.9859 170.624Z" fill="#105720"/>
<path d="M37.185 152.615L38.0819 153.594L30.5273 160.522L33.0283 163.253C33.5075 162.912 34.0094 162.558 34.534 162.19C35.0586 161.822 35.583 161.458 36.1073 161.097C36.6316 160.736 37.1309 160.399 37.6053 160.084C38.0797 159.769 38.508 159.496 38.8903 159.266C39.5153 158.876 40.0845 158.584 40.5979 158.389C41.1039 158.193 41.5693 158.127 41.994 158.19C42.4114 158.252 42.803 158.483 43.1689 158.883C43.292 159.017 43.4016 159.164 43.4979 159.323C43.5906 159.478 43.6635 159.623 43.7166 159.759L42.8932 160.514C42.8507 160.39 42.7936 160.262 42.722 160.13C42.6468 159.994 42.553 159.864 42.4404 159.742C42.2188 159.5 41.9487 159.397 41.6302 159.435C41.3042 159.473 40.9546 159.588 40.5813 159.782C40.2045 159.972 39.8306 160.181 39.4595 160.408C39.1528 160.597 38.7699 160.843 38.3108 161.143C37.8518 161.444 37.3355 161.79 36.762 162.182C36.1846 162.577 35.5709 163.002 34.9209 163.457C34.2674 163.908 33.5984 164.376 32.9138 164.863L28.7666 160.334L37.185 152.615Z" fill="#105720"/>
<path d="M24.6634 144.932C25.3935 144.44 26.1213 144.085 26.8468 143.867C27.5679 143.651 28.268 143.582 28.9471 143.658C29.6189 143.733 30.2532 143.962 30.8498 144.345C31.4464 144.729 31.9844 145.277 32.464 145.99C32.9581 146.725 33.2731 147.445 33.4089 148.151C33.5418 148.853 33.5143 149.53 33.3264 150.184C33.1357 150.834 32.8011 151.452 32.3226 152.038C31.8413 152.619 31.2355 153.156 30.5054 153.647C29.5377 154.299 28.5813 154.711 27.6361 154.883C26.6909 155.054 25.7972 154.953 24.9552 154.578C24.1102 154.199 23.3578 153.519 22.6981 152.538C22.0674 151.6 21.7378 150.676 21.7095 149.765C21.6782 148.851 21.9172 147.984 22.4264 147.164C22.9284 146.342 23.674 145.598 24.6634 144.932ZM29.738 152.478C30.5416 151.937 31.1601 151.354 31.5936 150.73C32.0271 150.105 32.2453 149.449 32.2482 148.763C32.2482 148.072 32.0026 147.362 31.5114 146.631C31.0173 145.897 30.4535 145.403 29.8199 145.152C29.1834 144.896 28.4958 144.854 27.7571 145.025C27.0184 145.195 26.2473 145.551 25.4437 146.092C24.2211 146.916 23.4393 147.816 23.0983 148.793C22.75 149.768 22.9406 150.798 23.6701 151.883C24.1642 152.618 24.7288 153.117 25.3639 153.38C25.999 153.643 26.6866 153.695 27.4268 153.535C28.1597 153.375 28.9301 153.022 29.738 152.478Z" fill="#105720"/>
<path d="M26.03 135.099L18.44 142.802L18.466 142.859C18.6514 142.751 18.8805 142.626 19.1533 142.484C19.4261 142.341 19.726 142.189 20.053 142.028C20.3753 141.868 20.7068 141.711 21.0476 141.554L27.6086 138.543L28.1228 139.666L17.7418 144.429L16.9216 142.64L24.0489 135.389L24.0261 135.339L13.862 135.963L13.0483 134.188L23.4294 129.424L23.9762 130.617L17.3301 133.667C17.0224 133.808 16.7125 133.945 16.4005 134.077C16.0837 134.21 15.7848 134.333 15.5037 134.445C15.2179 134.559 14.97 134.656 14.7599 134.735L14.786 134.792L25.5776 134.112L26.03 135.099Z" fill="#105720"/>
<path d="M16.7065 121.698L20.533 123.364L20.2766 124.387L16.9865 123.041L14.9934 125.972L14.2245 125.256L16.5045 121.759L16.7065 121.698ZM17.6053 124.699L21.425 126.343L21.1709 127.374L17.8808 126.028L15.8877 128.958L15.1166 128.235L17.4032 124.76L17.6053 124.699Z" fill="#105720"/>
<path d="M6.65745 98.6806L6.84448 95.4516C6.927 94.027 7.20223 92.9682 7.67016 92.2754C8.13809 91.5825 8.88421 91.2658 9.90854 91.3252C10.3505 91.3508 10.7433 91.4596 11.0869 91.6517C11.4257 91.8383 11.7001 92.0994 11.9102 92.435C12.1203 92.7707 12.2559 93.1776 12.3169 93.6559L12.3948 93.6604C12.5018 93.1658 12.6703 92.7321 12.9006 92.3594C13.1309 91.9867 13.4395 91.702 13.8266 91.5053C14.2136 91.3086 14.6957 91.227 15.2728 91.2604C15.9748 91.3011 16.558 91.4993 17.0226 91.8549C17.4875 92.2053 17.8276 92.6841 18.0428 93.2913C18.2529 93.8982 18.3344 94.6073 18.2874 95.4184L18.0602 99.3415L6.65745 98.6806ZM11.6245 97.6382L11.751 95.4543C11.8085 94.4612 11.6845 93.7653 11.3789 93.3668C11.0736 92.963 10.6064 92.7429 9.97722 92.7064C9.32727 92.6688 8.84605 92.8704 8.53357 93.3114C8.22139 93.7472 8.03654 94.4617 7.97901 95.4548L7.86517 97.4203L11.6245 97.6382ZM12.7398 97.7028L17.0061 97.9501L17.1434 95.579C17.2021 94.5651 17.0461 93.8361 16.6753 93.392C16.2994 92.9477 15.7734 92.7059 15.0975 92.6667C14.6659 92.6417 14.2911 92.7165 13.9732 92.8911C13.6556 93.0605 13.4039 93.3537 13.218 93.7708C13.0272 94.1823 12.9113 94.7416 12.8704 95.4488L12.7398 97.7028Z" fill="#105720"/>
<path d="M10.5589 86.4162L15.8501 87.4051C15.9525 87.4243 16.0851 87.4517 16.248 87.4874C16.4057 87.5222 16.5758 87.562 16.7582 87.6066C16.9355 87.6504 17.1077 87.6931 17.2747 87.735C17.4376 87.7707 17.5718 87.8037 17.6774 87.8341L11.4004 81.9081L11.6928 80.3414L20.1095 81.9145L19.8874 83.1049L14.7267 82.1404C14.5629 82.1098 14.3535 82.068 14.0984 82.015C13.8434 81.962 13.594 81.9075 13.3501 81.8513C13.1012 81.7942 12.9081 81.7501 12.7708 81.7192L19.043 87.6283L18.7492 89.2027L10.3324 87.6296L10.5589 86.4162Z" fill="#105720"/>
<path d="M14.6136 70.1175L21.7184 72.3952L22.0924 71.227L25.961 72.4672L25.5774 73.6652L22.7578 72.7612L20.9093 78.535L23.7289 79.4389L23.3501 80.622L19.4815 79.3818L19.6864 78.7419C19.1909 78.0689 18.608 77.4554 17.9377 76.9015C17.2675 76.3475 16.5361 75.856 15.7438 75.4269C14.9465 74.9963 14.118 74.6377 13.2582 74.3511L14.6136 70.1175ZM15.2121 71.6302L14.5927 73.5648C15.3026 73.8415 16.0049 74.1843 16.6999 74.593C17.3964 74.9968 18.0407 75.444 18.6328 75.9347C19.22 76.4237 19.7086 76.9304 20.0985 77.4547L21.3349 73.5931L15.2121 71.6302Z" fill="#105720"/>
<path d="M17.3287 62.9833C17.6276 62.3182 18.031 61.8143 18.5389 61.4717C19.0469 61.1291 19.6234 60.9516 20.2685 60.9392C20.9089 60.9246 21.5829 61.0765 22.2906 61.3949L23.0244 61.725L20.6006 67.1196C21.5237 67.5177 22.3244 67.6038 23.0027 67.3778C23.6809 67.1518 24.2004 66.6374 24.5611 65.8345C24.7831 65.3404 24.9344 64.883 25.0149 64.4624C25.0954 64.0417 25.1396 63.5875 25.1474 63.0999L26.1876 63.5679C26.1862 64.0413 26.1384 64.4909 26.0441 64.9168C25.9519 65.338 25.7874 65.8122 25.5504 66.3395C25.2132 67.0902 24.7666 67.6774 24.2107 68.1012C23.6523 68.5182 23.0068 68.7475 22.2743 68.7892C21.5418 68.8309 20.7458 68.6583 19.886 68.2716C19.0453 67.8933 18.3816 67.4262 17.8948 66.8703C17.4054 66.3074 17.1097 65.6947 17.0078 65.032C16.908 64.3646 17.015 63.6817 17.3287 62.9833ZM18.2913 63.4335C18.0074 64.0653 17.9877 64.6619 18.2323 65.2231C18.4769 65.7843 18.9537 66.2673 19.6627 66.6719L21.5197 62.5387C21.0521 62.334 20.6106 62.2239 20.195 62.2083C19.7769 62.1858 19.4064 62.2732 19.0836 62.4707C18.756 62.666 18.4919 62.9869 18.2913 63.4335Z" fill="#105720"/>
<path d="M27.7621 52.9042C28.3661 53.2642 28.8585 53.6639 29.2395 54.1032C29.6205 54.5426 29.8863 55.0072 30.0371 55.4973C30.1878 55.9873 30.2252 56.4947 30.1492 57.0194C30.0715 57.5369 29.8754 58.0598 29.561 58.5878C29.2679 59.0801 28.9138 59.4815 28.4987 59.7918C28.0818 60.0951 27.6208 60.2993 27.1157 60.4045C26.6133 60.5052 26.0757 60.497 25.5029 60.3799C24.9327 60.2583 24.3457 60.0175 23.7417 59.6575C22.9364 59.1774 22.3332 58.6329 21.932 58.0239C21.5264 57.4122 21.3265 56.7655 21.3322 56.0838C21.3362 55.3949 21.5474 54.6992 21.9657 53.9965C22.3653 53.3252 22.8642 52.8283 23.4623 52.5058C24.0631 52.1787 24.7302 52.0458 25.4636 52.107C26.1951 52.1611 26.9613 52.4268 27.7621 52.9042ZM24.4291 58.5028C25.0196 58.8548 25.5785 59.0819 26.1057 59.1839C26.6329 59.286 27.1123 59.2443 27.5439 59.059C27.9755 58.8736 28.3445 58.5236 28.6509 58.009C28.9546 57.4988 29.0852 57.0097 29.0426 56.5416C29.0026 56.0691 28.8123 55.6252 28.4716 55.2099C28.1309 54.7945 27.6653 54.4109 27.0747 54.0588C26.4887 53.7095 25.9365 53.4864 25.4182 53.3897C24.8955 53.2904 24.4206 53.3347 23.9934 53.5227C23.5663 53.7107 23.1982 54.0643 22.8892 54.5834C22.4336 55.3487 22.352 56.061 22.6444 56.7204C22.9394 57.3753 23.5343 57.9695 24.4291 58.5028Z" fill="#105720"/>
<path d="M36.1322 42.0564C36.6706 42.5086 37.0927 42.982 37.3984 43.4767C37.704 43.9714 37.892 44.4727 37.9623 44.9806C38.0326 45.4885 37.9882 45.9953 37.8292 46.501C37.6695 46.9995 37.3923 47.4841 36.9974 47.955C36.6292 48.394 36.2154 48.7335 35.756 48.9734C35.2959 49.2059 34.8081 49.3336 34.2927 49.3565C33.7807 49.3754 33.2513 49.2812 32.7047 49.0738C32.1614 48.8625 31.6206 48.5307 31.0821 48.0786C30.3641 47.4757 29.8559 46.8416 29.5575 46.1761C29.2551 45.5073 29.1613 44.8369 29.2763 44.1649C29.3905 43.4856 29.7104 42.8326 30.2358 42.2061C30.7378 41.6074 31.3098 41.1968 31.9519 40.9743C32.5973 40.7477 33.277 40.7234 33.9911 40.9013C34.7045 41.0719 35.4182 41.4569 36.1322 42.0564ZM31.9455 47.049C32.472 47.4911 32.9873 47.8047 33.4913 47.9899C33.9954 48.1751 34.4752 48.2108 34.9309 48.097C35.3866 47.9831 35.8069 47.6968 36.1918 47.2378C36.5733 46.7829 36.7805 46.321 36.8134 45.8521C36.8497 45.3793 36.7329 44.9106 36.4631 44.446C36.1934 43.9815 35.7952 43.5282 35.2687 43.0861C34.7462 42.6473 34.2369 42.3387 33.7409 42.1602C33.2408 41.9784 32.765 41.946 32.3132 42.0632C31.8615 42.1804 31.4416 42.4704 31.0533 42.9333C30.4811 43.6158 30.2864 44.3059 30.4694 45.0036C30.6557 45.6973 31.1478 46.3791 31.9455 47.049Z" fill="#105720"/>
<path d="M42.1116 30.4903L43.193 29.5551L43.0993 35.1001L49.0144 35.8411L47.8621 36.8376L42.08 36.0952L44.9193 39.3826L43.9324 40.236L38.3356 33.7559L39.3225 32.9024L42.0392 36.0479L42.1116 30.4903Z" fill="#105720"/>
<path d="M53.9125 27.0864C54.3113 27.6655 54.5922 28.2342 54.7552 28.7923C54.9182 29.3505 54.966 29.8838 54.8986 30.392C54.8312 30.9003 54.6536 31.3771 54.3657 31.8223C54.0792 32.2602 53.6829 32.6536 53.177 33.0025C52.7053 33.3276 52.2161 33.5447 51.7093 33.6537C51.2039 33.7554 50.6998 33.7488 50.1969 33.6337C49.6982 33.5156 49.213 33.284 48.7413 32.9386C48.2738 32.5903 47.8407 32.1266 47.442 31.5475C46.9103 30.7753 46.5892 30.0288 46.4786 29.308C46.365 28.5828 46.453 27.9117 46.7426 27.2945C47.0336 26.67 47.5156 26.1258 48.1888 25.6616C48.832 25.2182 49.4927 24.9746 50.1709 24.9309C50.8533 24.8842 51.515 25.0417 52.156 25.4032C52.7983 25.7574 53.3838 26.3185 53.9125 27.0864ZM48.5483 30.7848C48.9382 31.351 49.3514 31.7905 49.788 32.1031C50.2246 32.4157 50.6777 32.5778 51.1472 32.5894C51.6168 32.6009 52.0981 32.4367 52.5913 32.0967C53.0801 31.7597 53.4027 31.3696 53.5592 30.9264C53.72 30.4803 53.7322 29.9975 53.5957 29.4779C53.4593 28.9583 53.1961 28.4154 52.8062 27.8491C52.4193 27.2872 52.0105 26.8541 51.5798 26.5501C51.1462 26.2417 50.696 26.0839 50.2294 26.0767C49.7628 26.0694 49.2808 26.2373 48.7834 26.5802C48.0502 27.0857 47.6789 27.6991 47.6696 28.4204C47.6646 29.1387 47.9575 29.9268 48.5483 30.7848Z" fill="#105720"/>
<path d="M62.7468 17.4463L66.6289 25.0782L65.5846 25.6101L63.0556 20.6382C62.9517 20.4339 62.8513 20.225 62.7543 20.0114C62.6596 19.7907 62.5673 19.5689 62.4772 19.3459L62.4354 19.3672L63.0715 26.8901L62.0899 27.39L56.4485 22.4165L56.4067 22.4377C56.5293 22.6442 56.6472 22.853 56.7604 23.0642C56.876 23.2684 56.9928 23.4865 57.1108 23.7186L59.6186 28.6487L58.5674 29.1841L54.6853 21.5522L56.2378 20.7615L61.8758 25.7456L61.2014 18.2335L62.7468 17.4463Z" fill="#105720"/>
<path d="M72.3829 13.7807L75.2685 21.8424L74.0403 22.2826L71.5312 15.2728L67.2363 16.8121L69.7454 23.8219L68.5172 24.2621L65.6316 16.2005L72.3829 13.7807Z" fill="#105720"/>
<path d="M78.9152 11.8629C79.909 11.6296 80.6991 11.6795 81.2854 12.0126C81.8717 12.3458 82.2796 13.0017 82.5091 13.9804L83.8376 19.647L82.9173 19.8631L82.385 18.688L82.3242 18.7023C82.1623 19.0613 81.9789 19.3745 81.7741 19.6419C81.5682 19.9043 81.3103 20.128 81.0007 20.313C80.6949 20.4918 80.3011 20.6378 79.8194 20.7508C79.3124 20.8699 78.8403 20.8871 78.4032 20.8024C77.9711 20.7166 77.5988 20.5205 77.2862 20.214C76.9787 19.9063 76.7602 19.4762 76.6306 18.9234C76.4356 18.0918 76.6154 17.3755 77.17 16.7746C77.7245 16.1736 78.6714 15.6945 80.0106 15.3373L81.4339 14.939L81.3144 14.4294C81.1456 13.7093 80.8726 13.2411 80.4956 13.0246C80.1185 12.8082 79.6485 12.7661 79.0857 12.8982C78.6497 13.0006 78.2487 13.1615 77.883 13.3812C77.5172 13.6008 77.177 13.8385 76.8625 14.0942L76.2499 13.2269C76.58 12.9461 76.9723 12.6801 77.427 12.4289C77.8817 12.1777 78.3777 11.9891 78.9152 11.8629ZM81.6273 15.8325L80.3696 16.1839C79.3397 16.4685 78.6468 16.8104 78.291 17.2095C77.9353 17.6087 77.8216 18.0821 77.95 18.6298C78.0617 19.1064 78.2889 19.4249 78.6314 19.5853C78.9739 19.7456 79.3835 19.7698 79.8601 19.6579C80.6004 19.4841 81.1581 19.1365 81.5334 18.6151C81.9087 18.0936 82 17.4222 81.8074 16.6007L81.6273 15.8325Z" fill="#105720"/>
<path d="M86.6057 10.4627L87.0064 14.0341L91.75 13.5013L91.3493 9.92991L92.6381 9.78515L93.5926 18.2943L92.3039 18.439L91.8728 14.596L87.1292 15.1288L87.5603 18.9719L86.2637 19.1175L85.3092 10.6084L86.6057 10.4627Z" fill="#105720"/>
<path d="M98.4356 9.48625L98.3323 14.8681C98.3303 14.9722 98.3251 15.1076 98.3167 15.2741C98.3084 15.4354 98.2972 15.6097 98.2832 15.797C98.2693 15.979 98.2555 16.1559 98.2418 16.3275C98.2334 16.4941 98.2229 16.6319 98.2104 16.7411L103.021 9.57525L104.614 9.60618L104.45 18.1671L103.239 18.1436L103.34 12.8946C103.343 12.7279 103.35 12.5145 103.36 12.2542C103.37 11.994 103.383 11.7389 103.398 11.4892C103.413 11.2342 103.425 11.0365 103.433 10.896L98.6384 18.0543L97.0371 18.0232L97.2014 9.4623L98.4356 9.48625Z" fill="#105720"/>
<path d="M110.537 10.0868L109.732 15.4092C109.716 15.5121 109.694 15.6457 109.663 15.8097C109.634 15.9685 109.6 16.1399 109.562 16.3237C109.524 16.5024 109.488 16.6759 109.452 16.8443C109.422 17.0083 109.393 17.1436 109.367 17.2502L115.071 10.7736L116.647 11.0123L115.367 19.4786L114.169 19.2973L114.954 14.1062C114.979 13.9415 115.013 13.7307 115.058 13.474C115.102 13.2173 115.148 12.9661 115.195 12.7205C115.244 12.4697 115.281 12.2752 115.307 12.1369L109.62 18.6081L108.036 18.3682L109.316 9.90195L110.537 10.0868Z" fill="#105720"/>
<path d="M122.939 16.7622L126.443 14.53L127.166 15.3197L124.19 17.2617L125.485 20.5727L124.435 20.8023L122.875 16.9631L122.939 16.7622ZM125.9 17.7114L129.441 15.4911L130.15 16.2761L127.181 18.2205L128.468 21.5291L127.433 21.7634L125.836 17.9123L125.9 17.7114Z" fill="#105720"/>
<path d="M135.924 14.9238C135.445 14.7079 134.976 14.5628 134.518 14.4883C134.066 14.4159 133.641 14.382 133.245 14.3866L133.204 13.1432C133.695 13.13 134.219 13.1855 134.774 13.3096C135.329 13.4338 135.877 13.6176 136.419 13.8613C137.25 14.2352 137.914 14.6883 138.412 15.2205C138.916 15.7501 139.266 16.3385 139.46 16.9857C139.655 17.6329 139.71 18.3173 139.625 19.039C139.541 19.7606 139.329 20.4991 138.99 21.2544C138.484 22.3804 137.86 23.2733 137.118 23.9333C136.376 24.5933 135.531 24.9812 134.582 25.097C133.639 25.215 132.609 25.0229 131.492 24.5207C130.889 24.2493 130.392 23.9829 130.002 23.7214C129.613 23.4669 129.252 23.1786 128.917 22.8566L129.391 21.8019C129.746 22.0928 130.113 22.375 130.492 22.6486C130.879 22.9195 131.309 23.1619 131.784 23.3755C132.421 23.6619 133.018 23.8251 133.577 23.8651C134.141 23.9073 134.663 23.8311 135.144 23.6365C135.626 23.4419 136.063 23.136 136.456 22.7188C136.854 22.3038 137.203 21.7812 137.503 21.151L132.352 18.8335L132.832 17.7646L137.969 20.0757C138.174 19.5053 138.281 18.9623 138.29 18.4467C138.301 17.9263 138.218 17.4435 138.041 16.9984C137.864 16.5533 137.597 16.1562 137.24 15.8071C136.89 15.4554 136.452 15.161 135.924 14.9238Z" fill="#105720"/>
<path d="M146.095 32.1701L144.719 31.3359L143.231 23.6556L140.229 28.6146L139.093 27.9262L145.008 18.1551L146.144 18.8435L143.279 23.5754L150.52 21.496L151.823 22.2856L144.627 24.4108L146.095 32.1701Z" fill="#105720"/>
<path d="M158.593 34.7119C158.039 35.3965 157.448 35.9499 156.819 36.3722C156.193 36.7904 155.545 37.0628 154.873 37.1894C154.209 37.3153 153.535 37.2828 152.852 37.0921C152.17 36.9013 151.494 36.5357 150.826 35.9951C150.138 35.4382 149.625 34.8423 149.287 34.2075C148.954 33.576 148.781 32.9201 148.768 32.2398C148.759 31.5627 148.897 30.8739 149.182 30.1732C149.471 29.4758 149.893 28.7848 150.446 28.1001C151.179 27.1927 151.972 26.5179 152.825 26.0757C153.678 25.6335 154.562 25.4677 155.477 25.5783C156.396 25.6921 157.315 26.1209 158.234 26.8646C159.113 27.5755 159.699 28.3617 159.994 29.2233C160.293 30.0882 160.32 30.9875 160.074 31.9211C159.836 32.8539 159.342 33.7842 158.593 34.7119ZM151.523 28.9919C150.914 29.7454 150.494 30.4844 150.264 31.209C150.033 31.9336 150.018 32.6243 150.217 33.2812C150.42 33.9413 150.863 34.5482 151.548 35.1019C152.236 35.6588 152.92 35.9643 153.6 36.0183C154.283 36.0756 154.953 35.914 155.609 35.5334C156.264 35.1528 156.897 34.5858 157.505 33.8323C158.432 32.6858 158.914 31.5956 158.953 30.5616C158.999 29.5269 158.514 28.5984 157.497 27.7761C156.809 27.2191 156.123 26.9084 155.438 26.8437C154.754 26.7791 154.082 26.9318 153.421 27.3017C152.768 27.671 152.135 28.2343 151.523 28.9919Z" fill="#105720"/>
<path d="M162.393 46.8896L161.493 45.9134L169.022 38.9585L166.511 36.2367C166.033 36.5789 165.533 36.9349 165.009 37.3048C164.486 37.6747 163.963 38.0409 163.44 38.4035C162.917 38.766 162.419 39.1056 161.946 39.4222C161.472 39.7388 161.045 40.0129 160.664 40.2447C160.04 40.6364 159.472 40.9308 158.959 41.1278C158.454 41.3251 157.989 41.3932 157.564 41.3319C157.146 41.271 156.754 41.0414 156.386 40.6433C156.263 40.5093 156.153 40.363 156.056 40.2042C155.963 40.0493 155.889 39.9045 155.836 39.7696L156.656 39.0115C156.699 39.1349 156.757 39.2626 156.829 39.3945C156.904 39.5303 156.999 39.6594 157.112 39.7819C157.334 40.0231 157.605 40.1242 157.923 40.0853C158.249 40.0468 158.598 39.9298 158.971 39.7346C159.347 39.5431 159.72 39.3332 160.09 39.1046C160.396 38.9141 160.778 38.6676 161.236 38.3651C161.694 38.0627 162.209 37.7146 162.781 37.3208C163.357 36.9235 163.969 36.4964 164.618 36.0393C165.27 35.586 165.937 35.115 166.62 34.6261L170.783 39.1396L162.393 46.8896Z" fill="#105720"/>
<path d="M174.91 54.3682C174.183 54.8652 173.458 55.2255 172.734 55.4494C172.015 55.6703 171.315 55.7449 170.635 55.6735C169.963 55.6033 169.327 55.3789 168.728 55.0001C168.128 54.6213 167.586 54.0771 167.102 53.3676C166.602 52.6365 166.282 51.9184 166.141 51.2135C166.003 50.5128 166.025 49.8348 166.208 49.1795C166.394 48.5285 166.725 47.9083 167.199 47.3189C167.676 46.7339 168.278 46.1928 169.004 45.6959C169.967 45.0372 170.92 44.6185 171.864 44.4397C172.808 44.261 173.703 44.356 174.547 44.7246C175.395 45.0976 176.152 45.7722 176.819 46.7484C177.457 47.6817 177.793 48.6033 177.828 49.5132C177.866 50.4275 177.634 51.2965 177.13 52.1203C176.634 52.9455 175.894 53.6948 174.91 54.3682ZM169.78 46.8594C168.98 47.4064 168.366 47.9938 167.937 48.6216C167.508 49.2495 167.295 49.9066 167.297 50.5929C167.302 51.2836 167.553 51.9923 168.049 52.7191C168.549 53.4502 169.116 53.9392 169.752 54.1861C170.39 54.4372 171.078 54.4747 171.815 54.2984C172.553 54.1221 173.321 53.7604 174.121 53.2135C175.337 52.3813 176.113 51.4755 176.447 50.4962C176.788 49.5182 176.589 48.4895 175.852 47.4101C175.353 46.679 174.784 46.1842 174.147 45.9258C173.51 45.6674 172.822 45.6206 172.083 45.7854C171.352 45.9515 170.584 46.3095 169.78 46.8594Z" fill="#105720"/>
<path d="M173.755 64.4532L181.316 56.7215L181.29 56.6648C181.105 56.7735 180.876 56.8995 180.604 57.0429C180.332 57.1863 180.032 57.3393 179.706 57.5021C179.384 57.6626 179.053 57.8217 178.713 57.9794L172.163 61.0145L171.645 59.8943L182.008 55.092L182.835 56.8787L175.735 64.1556L175.758 64.2053L185.919 63.5433L186.74 65.3158L176.376 70.1181L175.825 68.927L182.46 65.8525C182.767 65.7101 183.076 65.5725 183.388 65.4396C183.704 65.3046 184.003 65.1806 184.283 65.0678C184.569 64.9528 184.816 64.8553 185.026 64.7753L185 64.7186L174.211 65.4387L173.755 64.4532Z" fill="#105720"/>
<path d="M183.096 77.5811L179.257 75.9436L179.505 74.9187L182.806 76.2399L184.776 73.2945L185.551 74.0043L183.297 77.519L183.096 77.5811ZM182.174 74.5868L178.342 72.9717L178.589 71.9394L181.889 73.2605L183.86 70.3152L184.636 71.0324L182.376 74.5247L182.174 74.5868Z" fill="#105720"/>
<path d="M90.6719 88L109.339 100L90.6719 112V88Z" fill="#105720" stroke="#105720" stroke-width="2" stroke-linecap="round" stroke-linejoin="round"/>
</svg>
